# xmcd CD database file
#
# Track frame offsets:
#	150
#	28503
#	48785
#	76487
#	99330
#	125778
#	140586
#	158328
#	186110
#	214920
#	237212
#	265020
#	288089
#	310605
#
# Disc length: 4431 seconds
#
# Revision: 1
# Processed by: cddbd v1.5.1PL2 Copyright (c) Steve Scherf et al.
# Submitted via: CDex 1.51
#
DISCID=b3114d0e
DTITLE=Caribbean Festival Band - Latin Dance Party
DYEAR=1900
DGENRE=Country
TTITLE0=Harder Than Hardself
TTITLE1=40 Mas Uno
TTITLE2=Dancin
TTITLE3=Morning
TTITLE4=The Heat Is On
TTITLE5=Ring My B.P.
TTITLE6=Legu Mai
TTITLE7=Jump And Get On Bad
TTITLE8=My Thing
TTITLE9=Ragga Poom Poom
TTITLE10=Bottom
TTITLE11=Preperate
TTITLE12=Carnaval Ban Apoye
TTITLE13=Den Ambiente
EXTD=
EXTT0=
EXTT1=
EXTT2=
EXTT3=
EXTT4=
EXTT5=
EXTT6=
EXTT7=
EXTT8=
EXTT9=
EXTT10=
EXTT11=
EXTT12=
EXTT13=
PLAYORDER=
